<svg xmlns="http://www.w3.org/2000/svg" xmlns:xlink="http://www.w3.org/1999/xlink" width="32" height="32" viewBox="-1 -11 48 48">
    <defs>
        <linearGradient id="cw251shzfb" x1="56.707%" x2="8.312%" y1="44.372%" y2="17.013%">
            <stop offset="0%" stop-color="#00D1C9"/>
            <stop offset="100%" stop-color="#00E25E"/>
        </linearGradient>
        <linearGradient id="58e1651pxd" x1=".053%" x2="99.947%" y1="0%" y2="100%">
            <stop offset="0%" stop-color="#00D1C9"/>
            <stop offset="100%" stop-color="#00E25E"/>
        </linearGradient>
        <path id="hjmluit4ba" d="M10.895 0C4.879 0 .002 4.876 0 10.893V21.79h10.895c6.016 0 10.893-4.877 10.895-10.893V0H10.895z"/>
        <path id="yuv1xp652e" d="M0.409 17.524L86.276 17.524 86.276 -0.876 0.409 -0.876z"/>
    </defs>
    <g fill="none" fill-rule="evenodd">
        <g>
            <g>
                <g>
                    <g>
                        <g transform="translate(-150.000000, -336.000000) translate(150.000000, 336.000000) translate(0.500000, 0.725373) translate(0.603769, 0.000000) translate(21.805522, 0.000000)">
                            <mask id="il5j8y5fac" fill="#fff">
                                <use xlink:href="#hjmluit4ba"/>
                            </mask>
                            <path fill="url(#cw251shzfb)" d="M0 10.893C-.001 16.91 4.876 21.789 10.893 21.79c6.017.001 10.895-4.876 10.897-10.893C21.79 4.88 16.914 0 10.898 0 4.88-.002.002 4.875 0 10.893" mask="url(#il5j8y5fac)"/>
                        </g>
                        <path fill="url(#58e1651pxd)" d="M0 20.815L19.838 20.815 19.838 0.966 0 0.966z" transform="translate(-150.000000, -336.000000) translate(150.000000, 336.000000) translate(0.500000, 0.725373) translate(0.603769, 0.000000)"/>
                    </g>
                </g>
            </g>
        </g>
    </g>
</svg>
