<svg xmlns="http://www.w3.org/2000/svg" width="66" height="66" viewBox="0 0 66 66" fill="none">
    <circle cx="32.9993" cy="32.9993" r="32.9993" fill="url(#p)"/>
    <path d="M45 39.9889C44.1099 39.9935 43.2375 40.2383 42.475 40.6973L37.7087 35.932C38.3878 34.9132 38.7502 33.7164 38.7502 32.4922C38.7502 31.2681 38.3878 30.0713 37.7087 29.0525L40.8925 25.8702C41.6979 26.2579 42.6146 26.3483 43.4802 26.1251C44.3458 25.902 45.1045 25.3798 45.6218 24.6511C46.1392 23.9224 46.3818 23.0341 46.3066 22.1437C46.2315 21.2534 45.8435 20.4183 45.2114 19.7864C44.5793 19.1546 43.7439 18.7668 42.8531 18.6917C41.9623 18.6166 41.0737 18.8591 40.3446 19.3762C39.6156 19.8933 39.0932 20.6517 38.8699 21.5169C38.6467 22.3821 38.7371 23.2984 39.125 24.1035L35.9412 27.2858C34.922 26.607 33.7247 26.2448 32.5 26.2448C31.2753 26.2448 30.078 26.607 29.0588 27.2858L24.2913 22.5204C24.7503 21.7586 24.9952 20.8871 25 19.9978C25 19.0093 24.7068 18.043 24.1573 17.2212C23.6079 16.3993 22.827 15.7587 21.9134 15.3804C20.9998 15.0022 19.9945 14.9032 19.0246 15.096C18.0546 15.2889 17.1637 15.7649 16.4645 16.4638C15.7652 17.1628 15.289 18.0533 15.0961 19.0228C14.9031 19.9922 15.0022 20.9971 15.3806 21.9104C15.759 22.8236 16.3999 23.6041 17.2222 24.1533C18.0444 24.7025 19.0111 24.9956 20 24.9956C20.8901 24.9909 21.7625 24.7462 22.525 24.2871L27.2913 29.0525C26.6122 30.0713 26.2498 31.2681 26.2498 32.4922C26.2498 33.7164 26.6122 34.9132 27.2913 35.932L22.5238 40.6973C21.7616 40.2386 20.8897 39.9938 20 39.9889C19.0111 39.9889 18.0444 40.282 17.2222 40.8312C16.3999 41.3804 15.759 42.1609 15.3806 43.0741C15.0022 43.9874 14.9031 44.9922 15.0961 45.9617C15.289 46.9312 15.7652 47.8217 16.4645 48.5207C17.1637 49.2196 18.0546 49.6956 19.0246 49.8884C19.9945 50.0813 20.9998 49.9823 21.9134 49.604C22.827 49.2258 23.6079 48.5852 24.1573 47.7633C24.7068 46.9414 25 45.9752 25 44.9867C24.9954 44.097 24.7505 43.225 24.2913 42.4628L29.0588 37.6987C29.7235 38.1416 30.4675 38.4521 31.25 38.6133V42.7177C30.416 43.0124 29.7131 43.5924 29.2655 44.3551C28.8179 45.1177 28.6544 46.014 28.804 46.8855C28.9536 47.757 29.4066 48.5476 30.0829 49.1175C30.7593 49.6874 31.6154 50 32.5 50C33.3846 50 34.2407 49.6874 34.9171 49.1175C35.5934 48.5476 36.0464 47.757 36.196 46.8855C36.3456 46.014 36.1821 45.1177 35.7345 44.3551C35.2869 43.5924 34.584 43.0124 33.75 42.7177V38.6133C34.5325 38.4521 35.2765 38.1416 35.9412 37.6987L40.7087 42.4641C40.2497 43.2259 40.0049 44.0974 40 44.9867C40 45.9752 40.2932 46.9414 40.8427 47.7633C41.3921 48.5852 42.173 49.2258 43.0866 49.604C44.0002 49.9823 45.0055 50.0813 45.9755 49.8884C46.9454 49.6956 47.8363 49.2196 48.5355 48.5207C49.2348 47.8217 49.711 46.9312 49.9039 45.9617C50.0969 44.9922 49.9978 43.9874 49.6194 43.0741C49.241 42.1609 48.6001 41.3804 47.7779 40.8312C46.9556 40.282 45.9889 39.9889 45 39.9889ZM32.5 28.7439C33.2417 28.7439 33.9667 28.9637 34.5834 29.3756C35.2001 29.7875 35.6807 30.3729 35.9645 31.0578C36.2484 31.7427 36.3226 32.4964 36.1779 33.2235C36.0333 33.9506 35.6761 34.6185 35.1517 35.1427C34.6272 35.6669 33.959 36.0239 33.2316 36.1686C32.5042 36.3132 31.7502 36.239 31.0649 35.9552C30.3797 35.6715 29.794 35.1911 29.382 34.5747C28.9699 33.9583 28.75 33.2336 28.75 32.4922C28.751 31.4984 29.1464 30.5456 29.8494 29.8429C30.5525 29.1401 31.5057 28.7449 32.5 28.7439ZM17.5 19.9978C17.5 19.5036 17.6466 19.0204 17.9213 18.6095C18.196 18.1985 18.5865 17.8782 19.0433 17.6891C19.5001 17.5 20.0028 17.4505 20.4877 17.5469C20.9727 17.6433 21.4181 17.8813 21.7678 18.2308C22.1174 18.5803 22.3555 19.0255 22.452 19.5103C22.5484 19.995 22.4989 20.4975 22.3097 20.9541C22.1205 21.4107 21.8 21.801 21.3889 22.0755C20.9778 22.3501 20.4945 22.4967 20 22.4967C19.3372 22.496 18.7017 22.2325 18.233 21.764C17.7643 21.2955 17.5007 20.6603 17.5 19.9978ZM20 47.4856C19.5055 47.4856 19.0222 47.339 18.6111 47.0644C18.2 46.7899 17.8795 46.3996 17.6903 45.943C17.5011 45.4864 17.4516 44.9839 17.548 44.4992C17.6445 44.0144 17.8826 43.5692 18.2322 43.2197C18.5819 42.8702 19.0273 42.6322 19.5123 42.5358C19.9972 42.4394 20.4999 42.4889 20.9567 42.678C21.4135 42.8672 21.804 43.1874 22.0787 43.5984C22.3534 44.0093 22.5 44.4925 22.5 44.9867C22.4993 45.6492 22.2357 46.2845 21.767 46.7529C21.2983 47.2214 20.6628 47.4849 20 47.4856ZM45 47.4856C44.5055 47.4856 44.0222 47.339 43.6111 47.0644C43.2 46.7899 42.8795 46.3996 42.6903 45.943C42.5011 45.4864 42.4516 44.9839 42.548 44.4992C42.6445 44.0144 42.8826 43.5692 43.2322 43.2197C43.5819 42.8702 44.0273 42.6322 44.5123 42.5358C44.9972 42.4394 45.4999 42.4889 45.9567 42.678C46.4135 42.8672 46.804 43.1874 47.0787 43.5984C47.3534 44.0093 47.5 44.4925 47.5 44.9867C47.499 45.6491 47.2353 46.2842 46.7667 46.7526C46.298 47.221 45.6627 47.4846 45 47.4856Z" fill="white"/>
    <defs>
        <radialGradient id="p" cx="0" cy="0" r="1" gradientUnits="userSpaceOnUse" gradientTransform="translate(32.9993 32.9993) rotate(90) scale(32.9993)">
            <stop offset="0.751666" stop-color="#FF3D00"/>
            <stop offset="1" stop-color="#FFC700"/>
        </radialGradient>
    </defs>
</svg>